subject01_squat_2019-12-23_grf.mot
version=1
nRows=18
nColumns=19
inDegrees=yes
endheader
time	ground_force_vx	ground_force_vy	ground_force_vz	ground_force_px	ground_force_py	ground_force_pz	1_ground_force_vx	1_ground_force_vy	1_ground_force_vz	1_ground_force_px	1_ground_force_py	1_ground_force_pz	ground_torque_x	ground_torque_y	ground_torque_z	1_ground_torque_x	1_ground_torque_y	1_ground_torque_z
22.66	26.781572792486045	148.39336537641458	-0.7157884105886774	0.26837820481696145	0.0	0.24205580950589187	38.846460989697896	205.19653976674286	-12.52173847736388	0.7119144588637136	0.0	0.24646724617494267	-1.1995712289780331	-2.71226714098166	0.6407653259146231	-0.7293530488447972	7.8163654995532355	-1.466222716784535
22.67	25.583802405831946	142.34869723594136	-1.6716223765187337	0.26823555723313197	0.0	0.24309360137439623	37.103355667032886	198.44569024862537	-13.856372376886439	0.7107969770627109	0.0	0.24997927425093128	-1.0014645154239417	-2.5873995370118483	0.733549204169263	-0.03210770854937373	7.77616001337705	-1.3586139815733869
22.68	24.508623411914897	137.05621455098247	-2.7527201548059357	0.268061280164661	0.0	0.2442250749148894	35.34765877905204	192.48511383034347	-15.370528736107113	0.7095754328786467	0.0	0.25366620479041996	-0.8010958080972199	-2.4765340251192205	0.8148140235005993	0.6675969386477445	7.775868404412173	-1.2185330048935756
22.69	23.6542034224276	132.74907923834235	-3.886196650378839	0.26781220784815196	0.0	0.2453880391701361	33.690761362745214	187.7273722105796	-16.98678070057859	0.7082817396757894	0.0	0.25739983231503505	-0.610377122094446	-2.3741822923333653	0.9002263757070252	1.355805842635214	7.8271144941013	-1.091786148258292
22.7	23.039486783380887	129.55195695384148	-4.985874179189814	0.2674980041547997	0.0	0.24653859538932843	32.21738569355873	184.58831163929858	-18.571653263441274	0.7069621940484598	0.0	0.2610201622277599	-0.4366807248220103	-2.2803730327213554	1.0041471624741762	2.0148299498571913	7.9405591672757625	-1.0163060288370696
22.71	22.58861490657409	127.47838198261738	-5.974748267671293	0.2671802815624151	0.0	0.24765475170133947	30.95292158483082	183.4151780328937	-19.99899133920743	0.705663827070065	0.0	0.26437552889074234	-0.2820597066219648	-2.2008944722257047	1.1369130536492913	2.632641772258198	8.126963492687922	-1.0144093237207426
22.72	22.155503796889203	126.51782846042563	-6.800009179234074	0.26695277166838266	0.0	0.24873067855626804	29.86907617600817	184.50229835915425	-21.195845683934056	0.704420294062956	0.0	0.267354504980589	-0.14436230456338003	-2.1468297288849283	1.301720960865223	3.2095022195490235	8.40129312914031	-1.0901854689768946
22.73	21.582969603285314	126.76796638722793	-7.436863108349953	0.26691212313905033	0.0	0.24976617629445017	28.924817631819522	188.1606046833071	-22.149236094210597	0.7032451552065538	0.0	0.26989776047417563	-0.019141334922795517	-2.133860619497875	1.4918158082570268	3.758945814808987	8.786553222089609	-1.2316597405760503
22.74	20.774625402035948	128.53734677373288	-7.882161763454105	0.2671309788452178	0.0	0.25075829386078324	28.118706944482756	194.76539999591483	-22.874996800152463	0.702136193106951	0.0	0.27198918585216714	0.09898843710284927	-2.181303901279338	1.6896086905684227	4.3026806121774115	9.313272417027518	-1.4155585531219124
22.75	19.751100802070905	132.3549303192705	-8.14332735512825	0.26764161965336136	0.0	0.25170022523984703	27.521529008706807	204.7159010962255	-23.371715164878513	0.7010881432924475	0.0	0.27363588604156364	0.21635202605977205	-2.310409154309576	1.869455133678834	4.861510406942922	10.012436097587221	-1.6125959857626564
22.76	18.66820212689527	138.8671889563191	-8.22943800028542	0.26843223915989495	0.0	0.25258761106029964	27.26923182058373	218.2915346918834	-23.590537345280378	0.700107012040291	0.0	0.27485021757928396	0.3413622243983243	-2.541408271049151	2.0045628422455555	5.44592452622054	10.90307815880461	-1.7925432080436647
22.77	17.78987108696824	148.65529724251687	-8.14817927612521	0.2694524733417227	0.0	0.2534276047344692	27.51819628833491	235.45161377213947	-23.440495937266487	0.6992186014056376	0.0	0.2756428924528418	0.48572506983901387	-2.889248928569467	2.0761396988400453	6.049949312559571	11.978898267346224	-1.9292838610014205
22.78	17.425637930206435	162.03764508418743	-7.907659953601638	0.2706231971440571	0.0	0.25424389845169204	28.384145050794476	255.6635507068377	-22.82690433999205	0.6984665006402321	0.0	0.2760281925247789	0.6643029916668215	-3.358755109233018	2.080862342218954	6.650439858844708	13.199597816633954	-2.005662742547099
22.79	17.853425047047256	178.9248770156604	-7.520104207089308	0.27184787810878686	0.0	0.25507239525603637	29.892414950642838	277.84304219619884	-21.702157663250787	0.6978995952260701	0.0	0.2760356265891312	0.8926652502550511	-3.9407714175178428	2.032883476389395	7.211929661812729	14.491363032365584	-2.0168773111659384
22.8	19.25045218377331	198.77219198242233	-7.0056467538731635	0.2730257493030926	0.0	0.2559472558789696	31.959674279774962	300.45180553172634	-20.103802388963317	0.6975543543315106	0.0	0.27571973088958274	1.1824653625948078	-4.611106262153992	1.9592981111892067	7.695226700286032	15.757566723232259	-1.9709342624490924
22.81	21.649093113122603	220.64090003714577	-6.395641566731639	0.2740673251578333	0.0	0.25688298547732386	34.411785119584415	321.7424738515422	-18.162968575926723	0.6974401486951505	0.0	0.2751611577469786	1.5360659691753953	-5.333380784168128	1.8912929134949976	8.06674826076892	16.896868402455876	-1.88585218324801
22.82	24.92546528171948	243.34936214809986	-5.733451529137393	0.2749100255628909	0.0	0.25786092529058907	37.02765493048567	340.0860426923974	-16.0797158401313	0.697534671881061	0.0	0.2744561922774703	1.9424952824142951	-6.065343810655273	1.8546407401417313	8.30541648104166	17.823114430715442	-1.784748164669859
22.83	28.820233997866172	265.66875434805326	-5.068308196991435	0.27552873770232583	0.0	0.25882625303380513	39.59028475669699	354.2820215349879	-14.073636797175109	0.6977917570847478	0.0	0.2736964903989528	2.37644093089331	-6.766565525123684	1.862451992714261	8.404775758814575	18.480736882270502	-1.6903608909131236
